<svg width="20" height="20" viewBox="0 0 20 20" fill="none" xmlns="http://www.w3.org/2000/svg">
<path d="M7.22291 10.0002C7.22291 8.46604 8.46623 7.22206 10.0004 7.22206C11.5345 7.22206 12.7785 8.46604 12.7785 10.0002C12.7785 11.5343 11.5345 12.7783 10.0004 12.7783C8.46623 12.7783 7.22291 11.5343 7.22291 10.0002ZM5.72112 10.0002C5.72112 12.3636 7.63693 14.2794 10.0004 14.2794C12.3638 14.2794 14.2796 12.3636 14.2796 10.0002C14.2796 7.63674 12.3638 5.72093 10.0004 5.72093C7.63693 5.72093 5.72112 7.63674 5.72112 10.0002ZM13.449 5.55126C13.4489 5.74905 13.5075 5.94242 13.6173 6.10692C13.7271 6.27142 13.8832 6.39966 14.0659 6.47542C14.2486 6.55119 14.4497 6.57107 14.6437 6.53256C14.8377 6.49405 15.0159 6.39888 15.1559 6.25908C15.2958 6.11928 15.3911 5.94112 15.4297 5.74715C15.4684 5.55318 15.4487 5.35209 15.3731 5.16933C15.2975 4.98657 15.1693 4.83033 15.0049 4.72038C14.8405 4.61043 14.6472 4.5517 14.4494 4.55162H14.449C14.1839 4.55174 13.9296 4.65709 13.7421 4.84452C13.5546 5.03195 13.4492 5.28614 13.449 5.55126ZM6.63355 16.7836C5.82105 16.7466 5.37944 16.6112 5.08596 16.4969C4.69688 16.3454 4.41926 16.165 4.12739 15.8735C3.83551 15.5821 3.65483 15.3047 3.50403 14.9156C3.38962 14.6223 3.25428 14.1805 3.21735 13.368C3.17695 12.4896 3.16888 12.2257 3.16888 10.0002C3.16888 7.77475 3.17761 7.5116 3.21735 6.63244C3.25435 5.81994 3.39069 5.37905 3.50403 5.08484C3.6555 4.69576 3.83591 4.41815 4.12739 4.12627C4.41886 3.83439 4.69621 3.65372 5.08596 3.50291C5.3793 3.38851 5.82105 3.25317 6.63355 3.21623C7.51199 3.17583 7.77587 3.16776 10.0004 3.16776C12.2248 3.16776 12.489 3.1765 13.3682 3.21623C14.1807 3.25323 14.6215 3.38957 14.9158 3.50291C15.3048 3.65372 15.5824 3.83479 15.8743 4.12627C16.1662 4.41775 16.3462 4.69576 16.4977 5.08484C16.6121 5.37819 16.7474 5.81994 16.7844 6.63244C16.8248 7.5116 16.8328 7.77475 16.8328 10.0002C16.8328 12.2257 16.8248 12.4889 16.7844 13.368C16.7474 14.1805 16.6114 14.6222 16.4977 14.9156C16.3462 15.3047 16.1658 15.5823 15.8743 15.8735C15.5828 16.1648 15.3048 16.3454 14.9158 16.4969C14.6224 16.6113 14.1807 16.7466 13.3682 16.7836C12.4897 16.824 12.2258 16.832 10.0004 16.832C7.77487 16.832 7.51172 16.824 6.63355 16.7836ZM6.56455 1.71697C5.67738 1.75737 5.07116 1.89805 4.54174 2.10405C3.99345 2.3168 3.5293 2.60221 3.06548 3.06529C2.60166 3.52838 2.31698 3.99326 2.10424 4.54155C1.89823 5.07131 1.75756 5.6772 1.71716 6.56437C1.67609 7.45294 1.66669 7.73701 1.66669 10.0002C1.66669 12.2633 1.67609 12.5474 1.71716 13.436C1.75756 14.3232 1.89823 14.929 2.10424 15.4588C2.31698 16.0067 2.60172 16.4722 3.06548 16.935C3.52923 17.3979 3.99345 17.6829 4.54174 17.8963C5.07216 18.1023 5.67738 18.243 6.56455 18.2834C7.45359 18.3238 7.7372 18.3338 10.0004 18.3338C12.2635 18.3338 12.5476 18.3244 13.4362 18.2834C14.3234 18.243 14.9292 18.1023 15.459 17.8963C16.0069 17.6829 16.4714 17.3981 16.9352 16.935C17.3991 16.472 17.6831 16.0067 17.8965 15.4588C18.1025 14.929 18.2438 14.3231 18.2836 13.436C18.324 12.5467 18.3334 12.2633 18.3334 10.0002C18.3334 7.73701 18.324 7.45294 18.2836 6.56437C18.2432 5.67713 18.1025 5.07097 17.8965 4.54155C17.6831 3.9936 17.3983 3.52911 16.9352 3.06529C16.4721 2.60147 16.0069 2.3168 15.4596 2.10405C14.9292 1.89805 14.3233 1.75671 13.4368 1.71697C12.5483 1.67657 12.2642 1.6665 10.001 1.6665C7.73786 1.6665 7.45359 1.6759 6.56455 1.71697Z" fill="url(#paint0_radial)"/>
<path d="M7.22291 10.0002C7.22291 8.46604 8.46623 7.22206 10.0004 7.22206C11.5345 7.22206 12.7785 8.46604 12.7785 10.0002C12.7785 11.5343 11.5345 12.7783 10.0004 12.7783C8.46623 12.7783 7.22291 11.5343 7.22291 10.0002ZM5.72112 10.0002C5.72112 12.3636 7.63693 14.2794 10.0004 14.2794C12.3638 14.2794 14.2796 12.3636 14.2796 10.0002C14.2796 7.63674 12.3638 5.72093 10.0004 5.72093C7.63693 5.72093 5.72112 7.63674 5.72112 10.0002ZM13.449 5.55126C13.4489 5.74905 13.5075 5.94242 13.6173 6.10692C13.7271 6.27142 13.8832 6.39966 14.0659 6.47542C14.2486 6.55119 14.4497 6.57107 14.6437 6.53256C14.8377 6.49405 15.0159 6.39888 15.1559 6.25908C15.2958 6.11928 15.3911 5.94112 15.4297 5.74715C15.4684 5.55318 15.4487 5.35209 15.3731 5.16933C15.2975 4.98657 15.1693 4.83033 15.0049 4.72038C14.8405 4.61043 14.6472 4.5517 14.4494 4.55162H14.449C14.1839 4.55174 13.9296 4.65709 13.7421 4.84452C13.5546 5.03195 13.4492 5.28614 13.449 5.55126ZM6.63355 16.7836C5.82105 16.7466 5.37944 16.6112 5.08596 16.4969C4.69688 16.3454 4.41926 16.165 4.12739 15.8735C3.83551 15.5821 3.65483 15.3047 3.50403 14.9156C3.38962 14.6223 3.25428 14.1805 3.21735 13.368C3.17695 12.4896 3.16888 12.2257 3.16888 10.0002C3.16888 7.77475 3.17761 7.5116 3.21735 6.63244C3.25435 5.81994 3.39069 5.37905 3.50403 5.08484C3.6555 4.69576 3.83591 4.41815 4.12739 4.12627C4.41886 3.83439 4.69621 3.65372 5.08596 3.50291C5.3793 3.38851 5.82105 3.25317 6.63355 3.21623C7.51199 3.17583 7.77587 3.16776 10.0004 3.16776C12.2248 3.16776 12.489 3.1765 13.3682 3.21623C14.1807 3.25323 14.6215 3.38957 14.9158 3.50291C15.3048 3.65372 15.5824 3.83479 15.8743 4.12627C16.1662 4.41775 16.3462 4.69576 16.4977 5.08484C16.6121 5.37819 16.7474 5.81994 16.7844 6.63244C16.8248 7.5116 16.8328 7.77475 16.8328 10.0002C16.8328 12.2257 16.8248 12.4889 16.7844 13.368C16.7474 14.1805 16.6114 14.6222 16.4977 14.9156C16.3462 15.3047 16.1658 15.5823 15.8743 15.8735C15.5828 16.1648 15.3048 16.3454 14.9158 16.4969C14.6224 16.6113 14.1807 16.7466 13.3682 16.7836C12.4897 16.824 12.2258 16.832 10.0004 16.832C7.77487 16.832 7.51172 16.824 6.63355 16.7836ZM6.56455 1.71697C5.67738 1.75737 5.07116 1.89805 4.54174 2.10405C3.99345 2.3168 3.5293 2.60221 3.06548 3.06529C2.60166 3.52838 2.31698 3.99326 2.10424 4.54155C1.89823 5.07131 1.75756 5.6772 1.71716 6.56437C1.67609 7.45294 1.66669 7.73701 1.66669 10.0002C1.66669 12.2633 1.67609 12.5474 1.71716 13.436C1.75756 14.3232 1.89823 14.929 2.10424 15.4588C2.31698 16.0067 2.60172 16.4722 3.06548 16.935C3.52923 17.3979 3.99345 17.6829 4.54174 17.8963C5.07216 18.1023 5.67738 18.243 6.56455 18.2834C7.45359 18.3238 7.7372 18.3338 10.0004 18.3338C12.2635 18.3338 12.5476 18.3244 13.4362 18.2834C14.3234 18.243 14.9292 18.1023 15.459 17.8963C16.0069 17.6829 16.4714 17.3981 16.9352 16.935C17.3991 16.472 17.6831 16.0067 17.8965 15.4588C18.1025 14.929 18.2438 14.3231 18.2836 13.436C18.324 12.5467 18.3334 12.2633 18.3334 10.0002C18.3334 7.73701 18.324 7.45294 18.2836 6.56437C18.2432 5.67713 18.1025 5.07097 17.8965 4.54155C17.6831 3.9936 17.3983 3.52911 16.9352 3.06529C16.4721 2.60147 16.0069 2.3168 15.4596 2.10405C14.9292 1.89805 14.3233 1.75671 13.4368 1.71697C12.5483 1.67657 12.2642 1.6665 10.001 1.6665C7.73786 1.6665 7.45359 1.6759 6.56455 1.71697Z" fill="url(#paint1_radial)"/>
<defs>
<radialGradient id="paint0_radial" cx="0" cy="0" r="1" gradientUnits="userSpaceOnUse" gradientTransform="translate(3.88104 18.4126) scale(21.7578)">
<stop offset="0.09" stop-color="#FA8F21"/>
<stop offset="0.78" stop-color="#D82D7E"/>
</radialGradient>
<radialGradient id="paint1_radial" cx="0" cy="0" r="1" gradientUnits="userSpaceOnUse" gradientTransform="translate(11.7747 19.1593) scale(17.1482)">
<stop offset="0.64" stop-color="#8C3AAA" stop-opacity="0"/>
<stop offset="1" stop-color="#8C3AAA"/>
</radialGradient>
</defs>
</svg>
