<svg width="144" height="32" viewBox="0 0 144 32" fill="none" xmlns="http://www.w3.org/2000/svg">
<g clip-path="url(#clip0)">
<path d="M3.0038 6.05858V8.29657C3.7785 7.59285 4.66406 7.04968 5.66005 6.64978C6.65562 6.26632 7.69953 6.05858 8.82179 6.05858C10.4345 6.05858 11.9202 6.47407 13.2483 7.27344C14.5764 8.07281 15.6512 9.15957 16.4421 10.5025C17.2481 11.8455 17.6432 13.3482 17.6432 14.9781V23.8984H14.6394V14.9465C14.6235 13.8597 14.3547 12.8686 13.8488 11.9892C13.3271 11.1098 12.632 10.4065 11.7464 9.8793C10.8767 9.35172 9.89696 9.09594 8.82179 9.09594C7.74662 9.09594 6.76647 9.35172 5.88133 9.8793C4.99578 10.4065 4.30025 11.1258 3.7785 12.0052C3.25676 12.9002 3.0038 13.8918 3.0038 14.9781V23.8984H0V6.05858H3.0038Z" fill="white"/>
<path d="M24.3243 9.87936C23.4388 10.4065 22.7432 11.1258 22.2215 12.0053C21.6997 12.9003 21.4468 13.8918 21.4468 14.9786C21.4468 16.0658 21.6997 17.0569 22.2215 17.9523C22.7432 18.8469 23.4388 19.5506 24.3243 20.0778C25.2095 20.6058 26.1896 20.8776 27.2648 20.8776C28.3395 20.8776 29.3201 20.6058 30.2052 20.0778C31.075 19.5506 31.7859 18.8469 32.3081 17.9523C32.8294 17.0569 33.0823 16.0658 33.0823 14.9786C33.0823 13.8918 32.8294 12.9003 32.3081 12.0053C31.7859 11.1258 31.075 10.4065 30.2052 9.87936C29.3201 9.35178 28.3395 9.096 27.2648 9.096C26.1896 9.096 25.2095 9.35178 24.3243 9.87936ZM31.6913 7.2735C33.019 8.07287 34.0783 9.14362 34.8689 10.4866C35.6594 11.8295 36.0707 13.3162 36.0861 14.9786V23.8989H33.0823V21.6605C32.3081 22.3638 31.4067 22.9234 30.4265 23.3073C29.4305 23.7068 28.3712 23.8989 27.2648 23.8989C25.652 23.8989 24.1664 23.499 22.8383 22.6997C21.4943 21.8843 20.435 20.8135 19.6448 19.455C18.8385 18.112 18.443 16.6254 18.443 14.9786C18.443 13.3482 18.8385 11.8616 19.6448 10.5026C20.435 9.15963 21.4943 8.07287 22.8383 7.2735C24.1664 6.47413 25.652 6.05864 27.2648 6.05864C28.8771 6.05864 30.3632 6.47413 31.6913 7.2735Z" fill="white"/>
<path d="M61.2102 9.87936C60.3247 10.4065 59.6292 11.1258 59.1074 12.0053C58.5857 12.9003 58.3327 13.8918 58.3327 14.9786C58.3327 16.0658 58.5857 17.0569 59.1074 17.9523C59.6292 18.8469 60.3247 19.5506 61.2102 20.0778C62.0954 20.6058 63.0755 20.8776 64.1507 20.8776C65.2255 20.8776 66.2056 20.6058 67.0912 20.0778C67.9609 19.5506 68.6718 18.8469 69.194 17.9523C69.7153 17.0569 69.9687 16.0658 69.9687 14.9786C69.9687 13.8918 69.7153 12.9003 69.194 12.0053C68.6718 11.1258 67.9609 10.4065 67.0912 9.87936C66.2056 9.35178 65.2255 9.096 64.1507 9.096C63.0755 9.096 62.0954 9.35178 61.2102 9.87936ZM68.5772 7.2735C69.9049 8.07287 70.9647 9.14362 71.7552 10.4866C72.5453 11.8295 72.9562 13.3162 72.9721 14.9786V23.8989H69.9687V21.6605C69.194 22.3638 68.2926 22.9234 67.3124 23.3073C66.3165 23.7068 65.2571 23.8989 64.1507 23.8989C62.538 23.8989 61.0519 23.499 59.7238 22.6997C58.3798 21.8843 57.3209 20.8135 56.5304 19.455C55.724 18.112 55.3289 16.6254 55.3289 14.9786C55.3289 13.3482 55.724 11.8616 56.5304 10.5026C57.3209 9.15963 58.3798 8.07287 59.7238 7.2735C61.0519 6.47413 62.538 6.05864 64.1507 6.05864C65.763 6.05864 67.2495 6.47413 68.5772 7.2735Z" fill="white"/>
<path d="M85.8495 6.69807C86.8614 7.11356 87.7786 7.68918 88.5687 8.44051L86.3871 10.5184C85.8812 10.0709 85.2965 9.719 84.6481 9.46322C84.0159 9.22387 83.3204 9.09577 82.5932 9.09577C81.518 9.09577 80.5379 9.35155 79.6523 9.87913C78.7672 10.4067 78.0717 11.1256 77.5499 12.005C77.0282 12.9005 76.7756 13.8916 76.7756 14.9783C76.7756 16.0655 77.0282 17.057 77.5499 17.9525C78.0717 18.8471 78.7672 19.5504 79.6523 20.0775C80.5379 20.6055 81.518 20.8773 82.5932 20.8773C83.3204 20.8773 84.0001 20.7492 84.6327 20.5099C85.2807 20.2537 85.8495 19.9183 86.3559 19.4863L88.4108 21.6763C87.6202 22.3636 86.7347 22.9232 85.7549 23.3075C84.759 23.707 83.6996 23.8987 82.5932 23.8987C80.9805 23.8987 79.4944 23.4992 78.1663 22.6994C76.8227 21.8845 75.7638 20.8137 74.9729 19.4547C74.1669 18.1118 73.7719 16.6251 73.7719 14.9783C73.7719 13.348 74.1669 11.8613 74.9729 10.5024C75.7638 9.15982 76.8227 8.07306 78.1663 7.27369C79.4944 6.47432 80.9805 6.05841 82.5932 6.05841C83.7471 6.05841 84.8219 6.28217 85.8495 6.69807Z" fill="white"/>
<path d="M92.3567 -0.000144958V8.29613C93.1469 7.59284 94.0324 7.04925 95.028 6.64977C96.0244 6.2503 97.0679 6.05814 98.1901 6.05814C99.5341 6.05814 100.751 6.29791 101.842 6.76144C102.933 7.22497 103.866 7.86463 104.641 8.68002C105.415 9.49498 106 10.438 106.395 11.5092C106.791 12.5644 106.996 13.6836 106.996 14.8664V23.946H104.008V14.9621C103.992 13.8597 103.723 12.8682 103.201 11.9888C102.68 11.1097 101.984 10.4064 101.115 9.87886C100.23 9.35129 99.2495 9.0955 98.1743 9.0955C97.0995 9.0955 96.119 9.35129 95.2493 9.87886C94.3804 10.4064 93.6844 11.0937 93.1631 11.9732C92.6414 12.8522 92.3726 13.8433 92.3567 14.9465V23.8984H89.3688V-0.000144958H92.3567Z" fill="white"/>
<path d="M113.677 9.87936C112.791 10.4065 112.096 11.1258 111.575 12.0053C111.053 12.9003 110.8 13.8918 110.8 14.9786C110.8 16.0658 111.053 17.0569 111.575 17.9523C112.096 18.8469 112.791 19.5506 113.677 20.0778C114.562 20.6058 115.543 20.8776 116.617 20.8776C117.693 20.8776 118.673 20.6058 119.558 20.0778C120.427 19.5506 121.139 18.8469 121.66 17.9523C122.182 17.0569 122.435 16.0658 122.435 14.9786C122.435 13.8918 122.182 12.9003 121.66 12.0053C121.139 11.1258 120.427 10.4065 119.558 9.87936C118.673 9.35178 117.693 9.096 116.617 9.096C115.543 9.096 114.562 9.35178 113.677 9.87936ZM121.044 7.2735C122.388 8.07287 123.447 9.15963 124.237 10.5026C125.043 11.8616 125.439 13.3482 125.439 14.9786C125.439 16.6254 125.043 18.112 124.237 19.455C123.447 20.8135 122.388 21.8843 121.044 22.6997C119.716 23.499 118.23 23.8989 116.617 23.8989C115.005 23.8989 113.519 23.499 112.191 22.6997C110.847 21.8843 109.788 20.8135 108.998 19.455C108.192 18.112 107.796 16.6254 107.796 14.9786C107.796 13.3482 108.192 11.8616 108.998 10.5026C109.788 9.15963 110.847 8.07287 112.191 7.2735C113.519 6.47413 115.005 6.05864 116.617 6.05864C118.23 6.05864 119.716 6.47413 121.044 7.2735Z" fill="white"/>
<path d="M129.243 0.000110626V14.4832L138.223 6.0584H142.618L133.353 14.7386L143.124 23.8987H138.729L131.156 16.8168L129.243 18.6073V23.8987H126.239V0.000110626H129.243Z" fill="white"/>
<path fill-rule="evenodd" clip-rule="evenodd" d="M50.7506 17.9522C50.2289 18.8468 49.5334 19.5505 48.6478 20.0777C48.0661 20.4245 47.4489 20.6588 46.785 20.7797C46.0357 20.0339 45.3269 19.213 44.9506 18.594C46.2479 18.1911 47.4272 17.3648 48.2669 16.1541C49.0996 14.9536 49.4667 13.5647 49.4075 12.2049C49.6734 12.2635 50.4739 12.5934 51.1632 12.8762C51.4112 13.5318 51.5412 14.2322 51.5412 14.9781C51.5412 16.0652 51.2724 17.0568 50.7506 17.9522ZM44.8989 13.7661C45.1248 13.4404 45.569 13.3616 45.8911 13.59C46.2133 13.8184 46.2912 14.2676 46.0653 14.5929C45.8395 14.9186 45.3952 14.9974 45.0735 14.769C44.7514 14.5407 44.6734 14.0919 44.8989 13.7661ZM53.3748 10.5826C52.6005 9.25561 51.5887 8.18444 50.3081 7.36906C49.0275 6.56968 47.5731 6.13861 45.9762 6.07455L45.6757 6.05854L45.3915 6.07455C43.8104 6.1542 42.3877 6.58612 41.1071 7.38549C40.6182 7.69648 40.1782 8.05466 39.7644 8.43727L42.0605 10.3908C42.2881 10.2063 42.526 10.0322 42.7827 9.87926C43.652 9.35168 44.6326 9.0959 45.7074 9.0959C46.7984 9.0959 47.7627 9.35168 48.6478 9.87926C49.3742 10.3116 49.9664 10.8796 50.446 11.553C49.6392 11.3356 48.8199 11.1443 48.3686 11.1042C46.4941 10.9369 44.6039 11.2715 42.8998 12.0713L42.6648 12.1817L42.6419 12.443C42.4785 14.3354 42.8119 16.2464 43.6058 17.9716C44.0913 19.0251 44.7485 20.0069 45.5678 20.8728C44.548 20.8501 43.6141 20.5825 42.7827 20.0777C41.8976 19.5505 41.1858 18.8468 40.6645 17.9522C40.1586 17.0568 39.8898 16.0652 39.8898 14.9781C39.8898 14.0927 40.0769 13.2744 40.4165 12.5163L38.077 10.5261C38.0658 10.5459 38.0516 10.5628 38.0403 10.5826C37.2656 11.9091 36.886 13.3797 36.886 14.9781C36.886 16.6253 37.281 18.1119 38.0874 19.4545C38.878 20.8134 39.9373 21.8842 41.2808 22.684C42.6248 23.4985 44.095 23.8984 45.7074 23.8984C46.8142 23.8984 47.8577 23.7067 48.8537 23.3072C49.8338 22.9233 50.719 22.3797 51.4937 21.6924C51.3832 22.6996 51.0511 23.579 50.5294 24.3624C49.9918 25.1453 49.3121 25.7689 48.474 26.232C47.9181 26.5401 47.3239 26.7394 46.6938 26.8452L46.5646 26.1208C46.5637 26.1157 46.5633 26.1124 46.5633 26.1124L38.8963 26.9429C38.8963 26.9429 44.5543 28.5008 47.9181 32C47.6923 31.5162 47.4664 30.6966 47.2655 29.8218C48.2894 29.644 49.2487 29.2888 50.1501 28.7418C51.4778 27.9429 52.5372 26.8721 53.3435 25.5132C54.1337 24.1702 54.5292 22.684 54.5292 21.0532V14.9781C54.5292 13.3797 54.1495 11.9091 53.3748 10.5826Z" fill="white"/>
</g>
<defs>
<clipPath id="clip0">
<rect width="144" height="32" fill="white" transform="matrix(1 0 0 -1 0 32)"/>
</clipPath>
</defs>
</svg>
