<svg width="0" height="0" class="hidden">
  <symbol fill="none" xmlns="http://www.w3.org/2000/svg" viewBox="0 0 20 20" id="insta">
    <path d="M7.223 10a2.778 2.778 0 115.555 0 2.778 2.778 0 01-5.555 0zM5.72 10a4.28 4.28 0 108.558 0 4.28 4.28 0 00-8.558 0zm7.728-4.449a1 1 0 101-1 1 1 0 00-1 1zM6.634 16.784c-.813-.037-1.255-.173-1.548-.287a2.59 2.59 0 01-.959-.623 2.57 2.57 0 01-.623-.958c-.114-.294-.25-.736-.287-1.548-.04-.878-.048-1.142-.048-3.368 0-2.225.009-2.488.048-3.368.037-.812.174-1.253.287-1.547a2.59 2.59 0 01.623-.959 2.58 2.58 0 01.959-.623c.293-.114.735-.25 1.548-.287.878-.04 1.142-.048 3.366-.048 2.225 0 2.489.008 3.368.048.813.037 1.253.174 1.548.287.389.15.666.332.958.623.292.292.472.57.624.959.114.293.25.735.286 1.547.04.88.049 1.143.049 3.368 0 2.226-.008 2.489-.049 3.368-.037.813-.173 1.254-.286 1.548a2.58 2.58 0 01-.624.957 2.59 2.59 0 01-.958.624c-.294.114-.735.25-1.548.287-.878.04-1.142.048-3.368.048-2.225 0-2.488-.008-3.366-.048zm-.07-15.067c-.887.04-1.493.181-2.022.387a4.088 4.088 0 00-1.477.961 4.072 4.072 0 00-.96 1.477c-.207.53-.347 1.135-.388 2.022-.04.889-.05 1.173-.05 3.436s.01 2.547.05 3.436c.04.887.181 1.493.387 2.023.213.548.498 1.013.961 1.476a4.09 4.09 0 001.477.961c.53.206 1.135.347 2.023.387.889.04 1.172.05 3.435.05 2.264 0 2.548-.009 3.436-.05.887-.04 1.493-.18 2.023-.387a4.1 4.1 0 001.476-.961c.464-.463.748-.928.962-1.476.206-.53.347-1.136.387-2.023.04-.89.05-1.173.05-3.436s-.01-2.547-.05-3.436c-.04-.887-.181-1.493-.387-2.022a4.1 4.1 0 00-.962-1.477 4.078 4.078 0 00-1.475-.961c-.53-.206-1.137-.347-2.023-.387-.889-.04-1.173-.05-3.436-.05s-2.547.009-3.436.05z" fill="url(#paint0_radial)"></path>
    <path d="M7.223 10a2.778 2.778 0 115.555 0 2.778 2.778 0 01-5.555 0zM5.72 10a4.28 4.28 0 108.558 0 4.28 4.28 0 00-8.558 0zm7.728-4.449a1 1 0 101-1 1 1 0 00-1 1zM6.634 16.784c-.813-.037-1.255-.173-1.548-.287a2.59 2.59 0 01-.959-.623 2.57 2.57 0 01-.623-.958c-.114-.294-.25-.736-.287-1.548-.04-.878-.048-1.142-.048-3.368 0-2.225.009-2.488.048-3.368.037-.812.174-1.253.287-1.547a2.59 2.59 0 01.623-.959 2.58 2.58 0 01.959-.623c.293-.114.735-.25 1.548-.287.878-.04 1.142-.048 3.366-.048 2.225 0 2.489.008 3.368.048.813.037 1.253.174 1.548.287.389.15.666.332.958.623.292.292.472.57.624.959.114.293.25.735.286 1.547.04.88.049 1.143.049 3.368 0 2.226-.008 2.489-.049 3.368-.037.813-.173 1.254-.286 1.548a2.58 2.58 0 01-.624.957 2.59 2.59 0 01-.958.624c-.294.114-.735.25-1.548.287-.878.04-1.142.048-3.368.048-2.225 0-2.488-.008-3.366-.048zm-.07-15.067c-.887.04-1.493.181-2.022.387a4.088 4.088 0 00-1.477.961 4.072 4.072 0 00-.96 1.477c-.207.53-.347 1.135-.388 2.022-.04.889-.05 1.173-.05 3.436s.01 2.547.05 3.436c.04.887.181 1.493.387 2.023.213.548.498 1.013.961 1.476a4.09 4.09 0 001.477.961c.53.206 1.135.347 2.023.387.889.04 1.172.05 3.435.05 2.264 0 2.548-.009 3.436-.05.887-.04 1.493-.18 2.023-.387a4.1 4.1 0 001.476-.961c.464-.463.748-.928.962-1.476.206-.53.347-1.136.387-2.023.04-.89.05-1.173.05-3.436s-.01-2.547-.05-3.436c-.04-.887-.181-1.493-.387-2.022a4.1 4.1 0 00-.962-1.477 4.078 4.078 0 00-1.475-.961c-.53-.206-1.137-.347-2.023-.387-.889-.04-1.173-.05-3.436-.05s-2.547.009-3.436.05z" fill="url(#paint1_radial)"></path>
    <defs>
      <radialGradient id="paint0_radial" cx="0" cy="0" r="1" gradientUnits="userSpaceOnUse" gradientTransform="translate(3.881 18.413) scale(21.7578)">
        <stop offset=".09" stop-color="#FA8F21"></stop>
        <stop offset=".78" stop-color="#D82D7E"></stop>
      </radialGradient>
      <radialGradient id="paint1_radial" cx="0" cy="0" r="1" gradientUnits="userSpaceOnUse" gradientTransform="translate(11.775 19.16) scale(17.1482)">
        <stop offset=".64" stop-color="#8C3AAA" stop-opacity="0"></stop>
        <stop offset="1" stop-color="#8C3AAA"></stop>
      </radialGradient>
    </defs>
  </symbol>
  <symbol fill="none" xmlns="http://www.w3.org/2000/svg" viewBox="0 0 144 32" id="logo">
    <g clip-path="url(#clip0)" fill="#fff">
      <path d="M3.004 6.059v2.238A8.756 8.756 0 015.66 6.65a8.69 8.69 0 013.162-.591c1.613 0 3.098.415 4.426 1.214a9.14 9.14 0 013.194 3.23c.806 1.342 1.201 2.845 1.201 4.475v8.92H14.64v-8.951c-.015-1.087-.284-2.078-.79-2.958a5.935 5.935 0 00-2.103-2.11c-.87-.527-1.849-.783-2.924-.783s-2.056.256-2.94.783a5.981 5.981 0 00-2.103 2.126c-.522.895-.775 1.887-.775 2.973v8.92H0V6.058h3.004zm21.32 3.821a5.98 5.98 0 00-2.103 2.125c-.521.895-.774 1.887-.774 2.974 0 1.087.253 2.078.774 2.973a5.86 5.86 0 002.103 2.126 5.64 5.64 0 002.94.8 5.639 5.639 0 002.941-.8 5.99 5.99 0 002.103-2.126c.521-.895.774-1.886.774-2.973s-.253-2.079-.774-2.974a6.115 6.115 0 00-2.103-2.126c-.885-.527-1.865-.783-2.94-.783s-2.056.256-2.94.783zm7.367-2.607a9.051 9.051 0 013.178 3.214c.79 1.342 1.202 2.83 1.217 4.492v8.92h-3.004V21.66a8.637 8.637 0 01-2.655 1.647c-.997.4-2.056.592-3.162.592-1.613 0-3.099-.4-4.427-1.2a9.052 9.052 0 01-3.193-3.244c-.806-1.343-1.202-2.83-1.202-4.476 0-1.63.395-3.117 1.202-4.476a9.005 9.005 0 013.193-3.23 8.457 8.457 0 014.427-1.214c1.612 0 3.098.415 4.426 1.215zM61.21 9.88a5.98 5.98 0 00-2.103 2.125c-.521.895-.774 1.887-.774 2.974 0 1.087.253 2.078.774 2.973a5.861 5.861 0 002.103 2.126c.885.528 1.865.8 2.94.8a5.64 5.64 0 002.941-.8 5.99 5.99 0 002.103-2.126c.521-.895.775-1.886.775-2.973s-.254-2.079-.775-2.974a6.116 6.116 0 00-2.103-2.126c-.885-.527-1.865-.783-2.94-.783s-2.056.256-2.94.783zm7.367-2.607a9.052 9.052 0 013.178 3.214c.79 1.342 1.201 2.83 1.217 4.492v8.92H69.97V21.66a8.645 8.645 0 01-2.657 1.647c-.995.4-2.055.592-3.161.592-1.613 0-3.1-.4-4.427-1.2a9.055 9.055 0 01-3.194-3.244c-.806-1.343-1.201-2.83-1.201-4.476 0-1.63.395-3.117 1.201-4.476a9.007 9.007 0 013.194-3.23A8.46 8.46 0 0164.15 6.06a8.45 8.45 0 014.426 1.215zm17.273-.575a8.715 8.715 0 012.719 1.743l-2.182 2.077a5.843 5.843 0 00-1.739-1.055 5.802 5.802 0 00-2.055-.367c-1.075 0-2.055.256-2.94.783a5.987 5.987 0 00-2.103 2.126c-.522.895-.774 1.887-.774 2.973 0 1.088.252 2.079.774 2.975a5.861 5.861 0 002.102 2.125 5.64 5.64 0 002.941.8 5.72 5.72 0 002.04-.368 6.033 6.033 0 001.723-1.024l2.055 2.19a9.132 9.132 0 01-2.656 1.632 8.436 8.436 0 01-3.162.59c-1.612 0-3.099-.399-4.427-1.199a9.053 9.053 0 01-3.193-3.244c-.806-1.343-1.201-2.83-1.201-4.477 0-1.63.395-3.117 1.2-4.476a9.016 9.016 0 013.194-3.228 8.46 8.46 0 014.427-1.216c1.154 0 2.229.224 3.257.64zM92.357 0v8.296a9.026 9.026 0 012.671-1.646c.996-.4 2.04-.592 3.162-.592 1.344 0 2.561.24 3.652.703a8.273 8.273 0 012.799 1.919 8.165 8.165 0 011.754 2.83 9.48 9.48 0 01.601 3.356v9.08h-2.988v-8.984c-.016-1.102-.285-2.094-.807-2.973a6.025 6.025 0 00-2.086-2.11c-.885-.528-1.865-.784-2.94-.784s-2.056.256-2.926.784a5.981 5.981 0 00-2.086 2.094c-.522.88-.79 1.87-.806 2.973v8.952h-2.988V0h2.988zm21.32 9.88a5.968 5.968 0 00-2.102 2.125c-.522.895-.775 1.887-.775 2.974 0 1.087.253 2.078.775 2.973a5.849 5.849 0 002.102 2.126 5.64 5.64 0 002.94.8 5.637 5.637 0 002.941-.8 5.984 5.984 0 002.102-2.126c.522-.895.775-1.886.775-2.973s-.253-2.079-.775-2.974a6.11 6.11 0 00-2.102-2.126c-.885-.527-1.865-.783-2.941-.783-1.074 0-2.055.256-2.94.783zm7.367-2.607a9.002 9.002 0 013.193 3.23c.806 1.359 1.202 2.845 1.202 4.476 0 1.646-.396 3.133-1.202 4.476a9.05 9.05 0 01-3.193 3.245c-1.328.799-2.814 1.199-4.427 1.199-1.612 0-3.098-.4-4.426-1.2a9.05 9.05 0 01-3.193-3.244c-.806-1.343-1.202-2.83-1.202-4.476 0-1.63.396-3.117 1.202-4.476a9.002 9.002 0 013.193-3.23 8.457 8.457 0 014.426-1.214c1.613 0 3.099.415 4.427 1.215zM129.243 0v14.483l8.98-8.425h4.395l-9.265 8.68 9.771 9.16h-4.395l-7.573-7.081-1.913 1.79V23.9h-3.004V0h3.004z"></path>
      <path fill-rule="evenodd" clip-rule="evenodd" d="M50.75 17.952a5.86 5.86 0 01-2.102 2.126 5.54 5.54 0 01-1.863.702c-.75-.746-1.458-1.567-1.834-2.186a6.3 6.3 0 003.316-2.44c.833-1.2 1.2-2.59 1.14-3.95.266.06 1.067.39 1.756.672.248.656.378 1.356.378 2.102a5.806 5.806 0 01-.79 2.974zm-5.85-4.186a.707.707 0 01.992-.176c.322.228.4.678.174 1.003a.707.707 0 01-.991.176.725.725 0 01-.175-1.003zm8.476-3.183c-.775-1.327-1.786-2.399-3.067-3.214-1.28-.8-2.735-1.23-4.332-1.294l-.3-.016-.285.016c-1.58.08-3.003.511-4.284 1.31-.489.311-.929.67-1.343 1.052l2.296 1.954a6.14 6.14 0 01.723-.512c.869-.527 1.85-.783 2.924-.783 1.091 0 2.056.256 2.94.783.727.433 1.32 1 1.799 1.674-.807-.217-1.626-.409-2.077-.449a10.654 10.654 0 00-5.47.967l-.234.11-.023.262c-.164 1.892.17 3.803.964 5.529a10.786 10.786 0 001.962 2.9 5.522 5.522 0 01-2.785-.794 5.902 5.902 0 01-2.119-2.126 5.953 5.953 0 01-.774-2.974c0-.885.187-1.704.526-2.462l-2.339-1.99c-.011.02-.025.037-.037.057-.774 1.326-1.154 2.797-1.154 4.395 0 1.647.395 3.134 1.201 4.476a8.892 8.892 0 003.194 3.23c1.344.814 2.814 1.214 4.426 1.214 1.107 0 2.15-.191 3.147-.59a8.79 8.79 0 002.64-1.616 5.89 5.89 0 01-.965 2.67 5.947 5.947 0 01-2.055 1.87 5.526 5.526 0 01-1.78.613l-.13-.724v-.009l-7.668.83s5.658 1.559 9.022 5.058c-.226-.484-.452-1.303-.652-2.178a8.208 8.208 0 002.884-1.08 9.134 9.134 0 003.194-3.229c.79-1.343 1.185-2.829 1.185-4.46v-6.075c0-1.598-.38-3.069-1.154-4.395z"></path>
    </g>
    <defs>
      <clipPath id="clip0">
        <path fill="#fff" transform="matrix(1 0 0 -1 0 32)" d="M0 0h144v32H0z"></path>
      </clipPath>
    </defs>
  </symbol>
  <symbol fill="none" xmlns="http://www.w3.org/2000/svg" viewBox="0 0 20 20" id="viber">
    <path d="M16.007 3.716c-.4-.364-2.13-1.451-5.739-1.467 0 0-4.273-.28-6.347 1.598-1.155 1.14-1.544 2.835-1.587 4.904-.042 2.069-.263 6.02 3.52 7.072l-.016 3.191c0 .18.029.304.132.33.074.017.185-.021.28-.115.604-.608 2.541-2.944 2.541-2.944 2.6.17 4.667-.344 4.89-.417.524-.168 3.36-.412 3.84-4.289.495-3.996-.183-6.723-1.514-7.863z" fill="#7360F2"></path>
    <path d="M9.664 5.183a.21.21 0 01.21-.207c1.215.008 2.242.412 3.066 1.216.83.81 1.242 1.913 1.252 3.282a.21.21 0 11-.418.003c-.01-1.283-.392-2.27-1.126-2.986-.742-.722-1.662-1.09-2.776-1.097a.21.21 0 01-.208-.21z" fill="#fff"></path>
    <path d="M10.258 6.062a.21.21 0 00-.031.417c.797.058 1.395.325 1.823.792.43.47.64 1.054.624 1.77a.21.21 0 10.419.01c.018-.813-.225-1.506-.734-2.062-.516-.563-1.223-.863-2.101-.927z" fill="#fff"></path>
    <path d="M10.57 7.184a.21.21 0 10-.021.418c.361.019.607.124.768.29.162.168.265.426.284.804a.21.21 0 10.418-.02c-.022-.442-.147-.81-.402-1.074-.255-.265-.615-.395-1.046-.418zm.484 4.134c-.159.195-.453.17-.453.17-2.15-.548-2.725-2.726-2.725-2.726s-.026-.294.17-.452L8.435 8c.192-.148.315-.509.12-.86a9.102 9.102 0 00-.49-.768c-.172-.234-.57-.712-.572-.714-.192-.226-.474-.279-.772-.124l-.003.001h-.003a3.212 3.212 0 00-.792.643c0 .002-.001.002-.002.003l-.002.003c-.184.222-.29.44-.316.653a.869.869 0 00.037.373l.01.007c.093.33.325.878.83 1.794.289.53.622 1.033.995 1.507a7.9 7.9 0 00.602.678l.007.007.015.015.069.069c.214.213.44.414.678.601.473.374.977.707 1.507.996.915.504 1.465.737 1.794.83l.007.01a.868.868 0 00.373.037c.213-.026.43-.131.652-.316l.003-.002.003-.003c.255-.227.471-.495.642-.79v-.004l.002-.003c.155-.298.102-.58-.126-.773l-.05-.04c-.13-.107-.475-.392-.663-.53a9.108 9.108 0 00-.767-.49c-.352-.197-.712-.074-.86.119l-.31.388z" fill="#fff"></path>
  </symbol>
  <symbol fill="none" xmlns="http://www.w3.org/2000/svg" viewBox="0 0 20 20" id="facebook">
    <path d="M14.112 10.972l.46-2.994h-2.873V6.035c0-.818.4-1.618 1.688-1.618h1.306V1.87s-1.185-.202-2.318-.202c-2.365 0-3.911 1.432-3.911 4.029v2.282h-2.63v2.994h2.63v7.236a10.57 10.57 0 003.236 0v-7.236h2.412z" fill="#1977F3"></path>
  </symbol>
</svg>