<svg width="20" height="20" viewBox="0 0 20 20" fill="none" xmlns="http://www.w3.org/2000/svg">
<path fill-rule="evenodd" clip-rule="evenodd" d="M4.4443 1.6853C6.08879 0.58649 8.02219 0 10 0C11.3132 0 12.6136 0.258658 13.8268 0.761205C15.0401 1.26375 16.1425 2.00035 17.0711 2.92893C17.9997 3.85752 18.7363 4.95991 19.2388 6.17317C19.7413 7.38642 20 8.68678 20 10C20 11.9778 19.4135 13.9112 18.3147 15.5557C17.2159 17.2002 15.6541 18.4819 13.8268 19.2388C11.9996 19.9957 9.98891 20.1937 8.0491 19.8079C6.10929 19.422 4.32746 18.4696 2.92894 17.0711C1.53041 15.6725 0.578004 13.8907 0.192152 11.9509C-0.193701 10.0111 0.00433283 8.00043 0.761209 6.17317C1.51809 4.3459 2.79981 2.78412 4.4443 1.6853ZM13.0003 6.9908L8.71033 11.2908L7.06032 9.6408C6.97068 9.53612 6.86036 9.4511 6.73629 9.39108C6.61223 9.33106 6.4771 9.29733 6.33938 9.29201C6.20166 9.28669 6.06433 9.30989 5.936 9.36017C5.80768 9.41044 5.69113 9.4867 5.59367 9.58415C5.49622 9.68161 5.41996 9.79816 5.36969 9.92648C5.31941 10.0548 5.29621 10.1921 5.30153 10.3299C5.30685 10.4676 5.34058 10.6027 5.4006 10.7268C5.46062 10.8508 5.54564 10.9612 5.65032 11.0508L8.00033 13.4108C8.09377 13.5035 8.20458 13.5768 8.32642 13.6266C8.44826 13.6763 8.57872 13.7016 8.71033 13.7008C8.97267 13.6997 9.22406 13.5955 9.41033 13.4108L14.4103 8.4108C14.5041 8.31784 14.5784 8.20724 14.6292 8.08538C14.68 7.96352 14.7061 7.83282 14.7061 7.7008C14.7061 7.56879 14.68 7.43809 14.6292 7.31623C14.5784 7.19437 14.5041 7.08377 14.4103 6.9908C14.223 6.80455 13.9695 6.70001 13.7053 6.70001C13.4411 6.70001 13.1877 6.80455 13.0003 6.9908Z" fill="#57991F"/>
</svg>
