<svg width="20" height="20" viewBox="0 0 20 20" fill="none" xmlns="http://www.w3.org/2000/svg">
<path d="M16.0069 3.7157C15.6062 3.35166 13.8767 2.26498 10.2681 2.24924C10.2681 2.24924 5.99493 1.96848 3.92059 3.84735C2.76608 4.98726 2.37714 6.68239 2.3345 8.75101C2.29185 10.8196 2.07091 14.7714 5.85469 15.8226C5.85469 15.8226 5.83981 18.7564 5.83809 19.0142C5.83809 19.1945 5.86671 19.3179 5.96974 19.3434C6.04387 19.3614 6.15491 19.323 6.24935 19.2289C6.85437 18.6213 8.79133 16.2845 8.79133 16.2845C11.3903 16.4542 13.458 15.9411 13.6804 15.8684C14.2047 15.6998 17.0406 15.4563 17.5206 11.5795C18.0165 7.58333 17.3383 4.85561 16.0069 3.7157Z" fill="#fff"/>
<path d="M9.66416 5.18337C9.66496 5.06781 9.75929 4.97479 9.87485 4.97559C11.0891 4.98405 12.1156 5.3883 12.9396 6.19166C13.7706 7.00174 14.1816 8.10458 14.192 9.4743C14.1929 9.58985 14.0999 9.68425 13.9844 9.68512C13.8688 9.686 13.7744 9.59304 13.7735 9.47748C13.7638 8.19399 13.3819 7.20724 12.6475 6.49132C11.9062 5.76868 10.9858 5.40182 9.87193 5.39406C9.75638 5.39326 9.66335 5.29893 9.66416 5.18337Z" fill="#7360F2"/>
<path d="M10.2575 6.06157C10.1422 6.05313 10.042 6.13973 10.0335 6.25498C10.0251 6.37023 10.1117 6.4705 10.2269 6.47894C11.0236 6.53724 11.6219 6.80389 12.05 7.27107C12.4793 7.74019 12.69 8.32496 12.6745 9.04146C12.672 9.157 12.7636 9.25268 12.8791 9.25518C12.9947 9.25768 13.0904 9.16605 13.0929 9.05052C13.1105 8.23804 12.8683 7.54536 12.3587 6.98854L12.3586 6.98846C11.8434 6.42611 11.1362 6.12588 10.2575 6.06157Z" fill="#7360F2"/>
<path d="M10.5706 7.1842C10.4552 7.17818 10.3567 7.26685 10.3507 7.38226C10.3447 7.49766 10.4334 7.59609 10.5488 7.60211C10.91 7.62096 11.1556 7.72643 11.3166 7.89288C11.4786 8.06034 11.5824 8.31799 11.6012 8.69645C11.6069 8.81187 11.7051 8.90079 11.8205 8.89507C11.936 8.88934 12.0249 8.79114 12.0192 8.67572C11.9972 8.2336 11.8723 7.86546 11.6174 7.60195C11.3616 7.33742 11.0024 7.20673 10.5706 7.1842Z" fill="#7360F2"/>
<path d="M11.0536 11.3184C10.8952 11.5134 10.6011 11.4886 10.6011 11.4886C8.45135 10.9398 7.876 8.76228 7.876 8.76228C7.876 8.76228 7.85018 8.46815 8.04627 8.3098L8.43472 8.00102C8.62733 7.85259 8.75019 7.49244 8.55411 7.14072C8.40371 6.87672 8.24018 6.62041 8.06414 6.37276C7.89312 6.1392 7.49475 5.66089 7.49326 5.6594C7.30114 5.43279 7.01868 5.38017 6.72083 5.5353C6.71992 5.5353 6.71869 5.5357 6.7175 5.53609C6.7164 5.53644 6.71534 5.53679 6.71462 5.53679C6.41838 5.70748 6.15126 5.92432 5.92333 6.17916C5.92255 6.18071 5.92177 6.18145 5.921 6.1822C5.92028 6.18288 5.91957 6.18356 5.91886 6.18487C5.73485 6.40693 5.62953 6.62461 5.60289 6.83791C5.59736 6.86936 5.59544 6.90134 5.59718 6.93322C5.59619 7.02741 5.61052 7.12113 5.63962 7.21072L5.6498 7.21767C5.74263 7.54729 5.97495 8.09633 6.47981 9.01173C6.76859 9.5412 7.10163 10.0453 7.47539 10.5186C7.66264 10.7559 7.86336 10.9822 8.07655 11.1965C8.07913 11.1991 8.08168 11.2016 8.08422 11.2042C8.08926 11.2093 8.09427 11.2144 8.09939 11.2193L8.16789 11.2878C8.38216 11.501 8.60849 11.7017 8.84576 11.889C9.31913 12.2628 9.82331 12.5958 10.3529 12.8846C11.268 13.3894 11.8176 13.6217 12.1467 13.7146L12.1537 13.7248C12.2432 13.7539 12.337 13.7684 12.4312 13.7674C12.463 13.769 12.495 13.767 12.5265 13.7615C12.7401 13.7362 12.9576 13.631 13.179 13.446C13.1803 13.4453 13.181 13.4446 13.1817 13.4439C13.1824 13.4431 13.1832 13.4423 13.1847 13.4415C13.4396 13.2136 13.6565 12.9464 13.8273 12.6503C13.8273 12.6495 13.8276 12.6485 13.8279 12.6474C13.8282 12.6462 13.8286 12.6449 13.8286 12.644C13.9837 12.3462 13.9311 12.0637 13.7032 11.8714C13.7029 11.8714 13.6844 11.856 13.6529 11.8301C13.5237 11.7237 13.1777 11.4386 12.9899 11.3005C12.7425 11.1245 12.4864 10.9609 12.2227 10.8105C11.8707 10.6144 11.5113 10.7373 11.3624 10.9299L11.0536 11.3184Z" fill="#7360F2"/>
</svg>
